<svg id="combatRifle" viewBox="0 0 75 30" height="450" width="650"
	xmlns="http://www.w3.org/2000/svg" 
>
	<defs>
		<style>
			#combatRifle {
				--combatRifleBlack: #222;
			}
			#combatRifle .cRifle {
				mask: url(#cut);
				fill: var(--combatRifleBlack);
			}
		</style>
	</defs>
	<mask id="cut">
		<rect fill="white"
			x="0" y="0" height="30" width="75"
		>
		</rect>
		<path fill="black"
			d="m34.5,17 q0,-3 2,-3 q6,0 5.5,3z"
		>
		</path>
		<path fill="black"
			d="m60.5,9.5 h6 q1,0 1,1 v4 q0,3 -4,0 q-2,-1 -5,-5 z"
		>
		</path>
	</mask>
	<path class="cRifle"
		d="m1.5,9.5 h8.5 l2.5,-2.5 h4 l3,-3 h10 l2.5,-2.5 h7 v2.5 h8 l5,3 h7 
		h10 q1,0 1,1 v10 q-2,5 -12,-5 h-12 q-1.5,0 -1.5,1.5 v2.5 l4,4 q1,1 0,2
		l-1,1 q-0.25,0.25 -0.5,0 l-4.5,-4.5 h-8.5 q-1,2 -5,6 q-1,0.5 -2,0 
		q-3,-3 0,-5 q1,-1 1,-6 h-14 l-2,2 h-2 v-5 h-8.5 z"
	>
	</path>
</svg>