<svg class="pistol" viewBox="0 0 55 40" height="450" width="550"
	xmlns="http://www.w3.org/2000/svg" 
>
	<defs>
		<style>
			.pistol {
				fill: #333;
			}
		</style>
	</defs>
	<mask id="cut">
		<rect fill="white"
			x="0" y="0" height="45" width="55"
		>
		</rect>
		<path fill="black"
			d="m21,14 h11 q1,2 -1,5 h1 q1,-1 2,-5 h1 v4 q0,2 -2,2 h-6 q-2,0 -4,-6 z"	
		>
		</path>
	</mask>
	<path mask="url(#cut)"
		d="m2,3 h25 l1,1 h5 l1,-1 h2 v-0.5 h10.5
		l4,7 q1.6,3.2 0,4 
		l-5,2.5 q-1.8,1 0,4 
		l4,8 q3.2,7.5 0,8 
		h-10 q-4,0 -4,-4 v-8 q0,-2 -2,-2 h-9.5 q-1.5,0 -4,-8
		h-18 v-2 h-0.75 v-7 h0.75 z"	
	>
	</path>
</svg>
