<svg class="rocketLauncher" viewBox="0 0 75 30" height="450" width="650"
	xmlns="http://www.w3.org/2000/svg" 
>
	<defs>
		<style>
			.rocketLauncher {
				--rocketLauncherBlack: #333;
			}
			.rocketLauncher .rLauncher {
				mask: url(#cut);
				fill: var(--rocketLauncherBlack);
			}
		</style>
	</defs>
	<mask id="cut">
		<rect fill="white"
			x="0" y="0" height="30" width="75"
		>
		</rect>
		<path fill="black"
			d="m49,14 h5 l-3,3 h-2 z"
		>
		</path>
        <rect fill="black"
		    x="8" y="6.5" height="3" width="1"
	    >
        </rect>
        <rect fill="black"
		    x="11" y="6.5" height="3" width="1"
	    >
        </rect>
	</mask>
	<path class="rLauncher"
		d="m1.5,4 q0,-1 1,-1 h3 l2,2 h45 v-1 h18 l1.5,1.5 v9 l-1.5,1.5
        h-3.5 q-2,7 -5,7 q-5,-1 -3,-3 q1,-1 2,-4 h-5 l-3,3 h-4 v5 q0,1 -1,1 
        h-3 q-1,0 -1,-1 v-10 h-18 l-2,2 h-5 l-4,-4 h-7.5 l-2,2 h-3 q-1,0 -1,-1z"
	>
	</path>
</svg>