<svg class="elementIncendiary" viewBox="0 0 400 400" width="400" height="400" xmlns="http://www.w3.org/2000/svg" xmlns:svg="http://www.w3.org/2000/svg" >	
	<defs>
		<style>
			.elementIncendiary {
				--light: #651B00;
				--dark: #4A1000;
				--edge: #100101; 
				--nob: #2A0208;
				--incendiary: #FDB329;
			}
           #incendiary {
                fill: var(--incendiary, #bfb8c9);
                stroke-width: 0.5;
                stroke: var(--edge);
            }
		</style>

        <!-- symbol definition for element incendiary-->
		<symbol id="incendiary"> 
			<path class="incendiaryPath" 
                d="m265,243 a32,28 20 0 1 -39,-33.75 a35,45 0 0 0 0,-19.5 a15,15 0 0 1 9,7.5 a70,70 0 0 0 0,-33.75 
					a35,35 0 0 1 11.25,12.75 a60,60 0 0 0 0,-39 a25,25 0 0 1 13.5,12 a90,90 0 0 1 3.75,-34 
					a35,35 0 0 0 12,22.5 a35,35 0 0 1 8.25,18 a35,35 0 0 0 0,-15.75 a35,70 15 0 1 17.25,35.25 
					a35,35 0 0 0 6,-15 a35,60 25 0 1 2.25,45 a35,35 0 0 0 6,-10.5 a30,40 20 0 1 -40.5,48  
					a30,40 20 0 0 24,-34.5  a30,40 20 0 1 -6,4.5  a30,40 20 0 1 0,-9 a30,40 20 0 1 0,-8.25  
					a30,40 20 0 1 -9,13.5  a30,40 20 0 0 -9.75,-30.75  a30,40 20 0 1 -2.25,36.75  
					a30,40 20 0 1 -9.75,-16.5  a30,40 20 0 0 3,28.5  a30,40 20 0 1 -14.25,-27  
					a30,40 20 0 0 0,18  a30,40 20 0 0 -9,-3  a30,40 20 0 0 23.5,28.5  z" 
			/>
		</symbol>
	</defs>
	
	<!-- incendiary symbol -->
	<use href="#incendiary" fill="var(--acid)" transform="translate(-600, -340) scale(3, 3)" />
</svg>