<svg id="ashenIcon" width="500" height="160" viewBox="0 0 500 160"
	xmlns="http://www.w3.org/2000/svg" xmlns:svg="http://www.w3.org/2000/svg"
>
	<defs>
		<style>
			#ashenIcon {
				--icon-color: #666;
			}
			#ashenIcon .manufacturerBg {
				fill: transparent;
			}
			#ashenIcon .letter {
				fill: var(--icon-color);
			}
		</style>
		<mask id="ashenACuttout">
			<rect x="10" y="10" width="100" height="140" fill="#fff"/>
			<path d="m45,48 q1,-5 15,-5 h5 q16,0 15,5 l-3,31 q0,5 -15,5 h-6 q-16,-1 -15,-5" fill="#000"/>
		</mask>
	</defs>
	<rect class="manufacturerBg" width="500" height="160"/>
	<path id="ashenA" class="letter" mask="url(#ashenACuttout)"
		d="m38,26 l26,-7 q7,-1 14,0 q23,5 20,30 l-8,80 q-2,10 -10,10 q-10,-0 -8,-10 l1.5,-15
		q1,-7 -2,-6 q-15,2 -30,-2 q-2,-1 -3,6 l-4,20 q-1,5 -12,6 q-2,0 -5,1 q0,-3 -1,-4
		q-1,-1 -1,-4 l8,-56 q0,-1 -2,-2 q-7,-6 -7,-15 q0,-5 5,-8 q15,-7 15,-11 q1,-12 3.5,-13z" 
	/>
	<path id="ashenS" class="letter"
		d="m130,55 h25 q9,0 11,-7 q1,-3 4,-4 q2,-1 2,-1 c3,-4 4,-2 3,0 c0,1 3,2 3,6 l-4,18
		q-1,6 -6,6 h-38 q-4,0 -4,4 v6 h45 q4,0 3,5 q-6,58 -42,58 q-11,0 -22,-2 q-7,-2 -6,-11
		q1,-12 6,-11 q12,3 22,3 q18,1 20,-21 h-34 q-14,0 -14,-24 q0,-24 14,-25 z" 
	/>
	<path id="ashenH" class="letter"
		d="m200,54.5 q16,0 12,15 q-2,8 -1,13 l30,5 q7,0.5 7,-5 q0,-8 3,-24 c1,-8 17,-8 16,0
		l-9,73 q0,4 -12,6 q-8,0.5 -3,-24 q2,-8 -10,-7 q-11,0 -23,-1 q-6,0 -7,26 q0,8 -11,8
		q-11,0 -10,-8 l8,-50 q2,-12 -3,-14 q-5,-2 -5,-8 q0,-5 6,-5 q6,0 12,0z"
	/>
	<path id="ashenE" class="letter"
		d="m290,55 h50 q8,0 10,10 q1,8 -10,8 h-44 q.2,7 -2,13 h30 c2,0 13,12 0,14 h-15 q-4,0 -8,-1
		q-8,-1 -11,15 l-1,9 h45 c2,0 17,12 0,16 l-55,-1 q-9,0 -9,-5 l9,-70 q1,-8 8,-8 z"
	/>
	<path id="ashenN" class="letter"
		d="m370,47 h15 q6,0 8,8 l20,56 q0,3 5,3 l7,-58 c1,-14 20,-14 18,0 l-8,58 q-2,10 1,16
		q4,4 3,8 q-1,8 -12,7 q-18,-1 -23,-15 l-16,-35 q-4,-8 -6,0 l-4,30 q-1,8 -10,8 q-10,0 -8,-8
		l7,-58 q1,-5 -4,-6 q-3,0 -3,-6 q0,-8 10,-8z"
	/>
</svg>