<svg id="blackpowderIcon" width="1200" height="240" viewBox="0 0 1200 240"
	xmlns="http://www.w3.org/2000/svg" xmlns:svg="http://www.w3.org/2000/svg"
>
	<defs>
		<style>
			.manufacturerBg {
				fill: transparent;
			}
			.letter {
				fill: #333;
			}
		</style>
		<symbol id="bulletChamber">
			<path id="singleBulletChamber" class="letter" mask="url(#bulletHoleCuttouts)"
				d="m640,62 q20,-5 34,0 a15,15 0,0,0 6,17 l-23,40 
					l-23,-40 a15,15 0,0,0 6,-17 z"
			/>
			<use href="#singleBulletChamber" transform="rotate(60, 657, 118)"></use>
			<use href="#singleBulletChamber" transform="rotate(120, 657, 118)"></use>
			<use href="#singleBulletChamber" transform="rotate(180, 657, 118)"></use>
			<use href="#singleBulletChamber" transform="rotate(240, 657, 118)"></use>
			<use href="#singleBulletChamber" transform="rotate(300, 657, 118)"></use>
		</symbol>
		<mask id="bCuttouts">
			<rect x="15" y="73" width="100" height="100" fill="white"/>
			<path d="m52,86 h10 q8,0 8,11 q0,11 -8,11 h-10 z" fill="black"/>
			<path d="m52,122 h12 q8,0 8,13 q0,13 -8,13 h-12 z" fill="black"/>
		</mask>
		<mask id="aCuttouts">
			<rect x="180" y="73" width="120" height="100" fill="white"/>
			<path d="m236,92 l10,30 h-20 z" fill="black"/>
		</mask>
		<mask id="pCuttouts">
			<rect x="500" y="73" width="100" height="100" fill="white"/>
			<path d="m539,86 h10 q8,0 8,11 q0,11 -8,11 h-10 z" fill="black"/>
		</mask>
		<mask id="bulletHoleCuttouts">
			<rect x="590" y="53" width="100" height="100" fill="white"/>
			<circle cx="657" cy="84" r="12" fill="black"/>
			<circle cx="657" cy="118" r="8" fill="black"/>
		</mask>
		<mask id="dCuttouts">
			<rect x="840" y="73" width="120" height="100" fill="white"/>
			<path d="m887,85 h10 q12,0 14,31 q-2,31 -14,31 h-10 v-23 q0,-2 8,-8 q-4,-2 -8,-8 z" fill="black"/>
		</mask>
		<mask id="rCuttouts">
			<rect x="1040" y="73" width="140" height="100" fill="white"/>
			<path d="m1085,86 h14 q8,0 8,11 q0,11 -8,11 h-14 z" fill="black"/>
		</mask>
	</defs>
	<rect class="manufacturerBg" x="0" y="0" width="1200" height="240"/>
	<path id="B" class="letter" mask="url(#bCuttouts)"
		d="m15,73 h60 q15,0 20,12 q2,5 8,8 q-6,3 -8,8 q-5,12 -20,12 
		q20,0 25,17 q2,5 8,8 q-6,3 -8,8 q-5,14 -20,14 h-65 
		q8,-4 8,-10 v-27 q0,-4 -8,-8 q8,-4 8,-8 v-24 q0,-4 -8,-10 z" 
	/>
	<path id="L" class="letter"
		d="m102,73 h54 q-12,4 -12,14 v21 q0,4 8,8 q-8,4 -8,8 v25 h8 q30,0 37,-32 
		l-4,43 h-80 q8,-4 8,-10 v-26 q0,-4 -8,-8 q8,-4 8,-8 v-25 q0,-4 -8,-10 z"
	/>
	<path id="A" class="letter" mask="url(#aCuttouts)"
		d="m210,73 h52 l11,33 q2,5 12,10 q-6,2 -8,8 l8,21 q4,12 16,15
		h-60 q20,-4 6,-28 q-8,2 -11,6 q-3,-4 -11,-6 q-10,24 6,28 h-46 q10,-4 12,-8
		l9,-27 q-2,-6 -8,-8 q10,-5 12,-10 l9,-26 q-2,-4 -8,-8 z"
	/>
	<path id="C" class="letter"
		d="m384,73 v30 q-10,-20 -30,-20 q-21,0 -21,25 q0,4 8,8 q-8,4 -8,8 
		q0,28 21,28 q20,0 30,-20 q3,0 3,3 q0,25 -45,27 q-42,0 -42,-38 q0,-4 -8,-8
		q8,-4 8,-8 q0,-38 40,-38 q8,0 23,4 q8,2 21,-2 z"
	/>
	<path id="K" class="letter"
		d="m388,73 h44 q-10,0 -8,36 l28,-30 q4,-3 -6,-6 h38 q-2,0 -15,6 l-25,25
		q10,6 20,-4 q10,50 35,60 h-40 q-10,0 -23,-49 l-12,12 q0,37 10,37 h-50
		q8,0 12,-10 v-25 q0,-4 -8,-8 q8,-4 8,-8 v-25 q0,-4 -5,-8 z"
	/>
	<path id="P" class="letter" mask="url(#pCuttouts)"
		d="m504,73 h64 q15,0 20,18 q2,5 8,8 q-6,3 -8,8 q-5,12 -20,14 
		h-30 v19 q0,16 14,20 h-52 q8,-4 8,-10 v-27 q0,-4 -8,-8 q8,-4 8,-8
		v-24 q0,-4 -8,-10 z"
	/>
	<use href="#bulletChamber"></use>
	<path id="W" class="letter"
		d="m710,73 h44 q-8,2 -7,18 l12,48 l10,-48 q1,-16 -10,-18 h42 q-12,2 -10,18
		l10,48 l12,-48 q1,-16 -7,-18 h38 q-5,0 -8,8 l-9,27 q-2,2 8,8 q-10,5 -12,10
		l-5,15 q-3,10 5,20 h-38 l-8,-35 l-8,35 h-42 q10,-10 5,-30
		q-2,-5 -12,-15 q6,-4 6,-8 l-9,-27 q-2,-4 -8,-8 z" 
	/>
	<path id="D" class="letter" mask="url(#dCuttouts)"
		d="m850,73 h60 q28,0 34,35 q2,5 8,8 q-6,3 -8,8 q-6,34 -34,37 h-62 
		q8,-4 8,-10 v-27 q0,-4 -8,-8 q8,-4 8,-8 v-25 q0,-4 -8,-10 z" 
	/>
	<path id="E" class="letter"
		d="m955,73 h85 l2,26 q-6,-12 -30,-14 h-21 v25 h12 q6,0 12,-14 q-1,10 0,38
		q-6,-14 -12,-14 h-12 v28 h21 q24,0 33,-28 l-2,40 h-90 q8,-4 8,-10 v-26
		q0,-4 -8,-8 q8,-4 8,-8 v-25 q0,-4 -8,-10z"
	/>
	<path id="P" class="letter" mask="url(#rCuttouts)"
		d="m1052,73 h64 q15,0 20,14 q2,5 8,8 q-6,3 -8,8 q-10,12 -24,12 q15,0 22,-3
		q0,30 30,48 h-40 q-6,0 -10,-10 q-5,-30 -20,-30 h-8
		v20 q0,16 14,20 h-52 q8,-4 8,-10 v-27 q0,-4 -8,-8 q8,-4 8,-8
		v-24 q0,-4 -8,-10 z"
	/>
</svg>